<?xml version="1.0" encoding="iso-8859-1"?>
<!-- Generator: Adobe Illustrator 19.0.0, SVG Export Plug-In . SVG Version: 6.00 Build 0)  -->
<svg version="1.1" id="Capa_1" xmlns="http://www.w3.org/2000/svg" xmlns:xlink="http://www.w3.org/1999/xlink" x="0px" y="0px"
	 viewBox="0 0 512 512" style="enable-background:new 0 0 512 512;" xml:space="preserve">
<g>
	<g>
		<path d="M494.644,18.802H109.921c-9.586,0-17.356,7.77-17.356,17.356v86.78H17.356C7.77,122.938,0,130.708,0,140.294v289.266
			c0,35.088,28.551,63.638,63.638,63.638h373.153c41.469,0,75.209-33.74,75.209-75.209V36.158
			C512,26.572,504.23,18.802,494.644,18.802z M92.565,429.559c0,15.95-12.977,28.927-28.927,28.927
			c-15.95,0-28.927-12.976-28.927-28.927V157.65h57.853V429.559z M477.288,417.989c0,22.326-18.172,40.497-40.497,40.497h-316.48
			c4.455-8.684,6.966-18.519,6.966-28.927V53.514h350.011V417.989z"/>
	</g>
</g>
<g>
	<g>
		<path d="M420.592,92.276H183.394c-9.586,0-17.356,7.77-17.356,17.356v115.706c0,9.586,7.77,17.356,17.356,17.356h237.198
			c9.586,0,17.356-7.77,17.356-17.356V109.632C437.948,100.045,430.178,92.276,420.592,92.276z M403.236,207.982H200.75h0v-80.994
			h202.486V207.982z"/>
	</g>
</g>
<g>
	<g>
		<path d="M293.315,300.547H186.287c-9.586,0-17.356,7.77-17.356,17.356s7.77,17.356,17.356,17.356h107.028
			c9.586,0,17.356-7.77,17.356-17.356S302.902,300.547,293.315,300.547z"/>
	</g>
</g>
<g>
	<g>
		<path d="M409.021,375.756H186.287c-9.586,0-17.356,7.77-17.356,17.356c0,9.586,7.77,17.356,17.356,17.356h222.734
			c9.586,0,17.356-7.77,17.356-17.356C426.377,383.526,418.608,375.756,409.021,375.756z"/>
	</g>
</g>
<g>
</g>
<g>
</g>
<g>
</g>
<g>
</g>
<g>
</g>
<g>
</g>
<g>
</g>
<g>
</g>
<g>
</g>
<g>
</g>
<g>
</g>
<g>
</g>
<g>
</g>
<g>
</g>
<g>
</g>
</svg>
