<svg width="342" height="342" viewBox="0 0 342 342" fill="none" xmlns="http://www.w3.org/2000/svg">
<path d="M171 342C265.441 342 342 265.441 342 171C342 76.5593 265.441 0 171 0C76.5593 0 0 76.5593 0 171C0 265.441 76.5593 342 171 342Z" fill="#605553"/>
<path d="M342 171C342 164.588 341.635 158.26 340.947 152.032L327.455 138.539C327.455 138.539 309.65 140.007 309.59 139.952L265.061 95.4227L205.106 80.1142L169.053 44.1995L155.603 52.4355L147.202 65.3788L125.882 44.1995L35.3315 202.49L99.4372 266.387L101.754 286.475L154.807 341.232C160.139 341.733 165.537 342 171 342C265.441 342 342 265.441 342 171Z" fill="#4C403F"/>
<path d="M87.1232 95.066L106.047 46.9235C109.326 38.5819 120.475 37.0502 125.881 44.1995L155.603 83.4974L87.1232 95.066Z" fill="#FBBE2C"/>
<path d="M98.3778 247.535L95.1829 272.737C94.1181 281.137 100.665 288.566 109.132 288.566C113.95 288.566 118.433 286.099 121.011 282.028L138.831 253.892L98.3778 247.535Z" fill="#FED940"/>
<path d="M244.01 247.535L247.205 272.737C248.269 281.137 241.723 288.566 233.255 288.566C228.437 288.566 223.955 286.099 221.376 282.028L203.556 253.892L244.01 247.535Z" fill="#FBBE2C"/>
<path d="M273.823 179.151H266.701V158.776H273.823C289.581 158.776 303.571 148.182 307.843 133.014L327.456 138.539C320.72 162.451 298.666 179.151 273.823 179.151Z" fill="#FBBE2C"/>
<path d="M64.1357 206.567H46.7164C36.8138 206.567 28.7855 198.54 28.7855 188.636V140.16C28.7855 130.257 36.8131 122.229 46.7164 122.229H64.1357V206.567Z" fill="#FED940"/>
<path d="M209.251 257.998H133.136C91.4196 257.998 57.287 223.866 57.287 182.149V146.647C57.287 104.931 91.4189 70.798 133.136 70.798H209.251C250.968 70.798 285.1 104.93 285.1 146.647V182.149C285.1 223.866 250.969 257.998 209.251 257.998Z" fill="#FFE780"/>
<path d="M285.102 146.646V182.148C285.102 223.87 250.969 257.996 209.255 257.996H172.336V70.798H209.255C250.969 70.798 285.102 104.931 285.102 146.646Z" fill="#FED940"/>
<path d="M130.294 95.066L149.218 46.9235C152.497 38.5819 163.646 37.0502 169.052 44.1995L198.84 95.066H130.294Z" fill="#FED940"/>
<path d="M198.841 95.0653H172.336V49.8104L184.627 70.798L198.841 95.0653Z" fill="#FBBE2C"/>
<path d="M125.397 141.829C126.677 133.934 121.315 126.497 113.42 125.217C105.525 123.937 98.0878 129.299 96.808 137.194C95.5282 145.089 100.891 152.526 108.785 153.806C116.68 155.086 124.117 149.723 125.397 141.829Z" fill="#776D6B"/>
<path d="M172.336 128.289H240.311V150.765H172.336V128.289Z" fill="#FD9827"/>
</svg>